<svg xmlns="http://www.w3.org/2000/svg" width="312" height="236" viewBox="0 0 312 236" fill="none">
  <defs>
    <linearGradient id="g1" x1="0" y1="0" x2="312" y2="236" gradientUnits="userSpaceOnUse">
      <stop stop-color="#0039D6"/>
      <stop offset="1" stop-color="#1A6CFF"/>
    </linearGradient>
    <filter id="glow" x="66" y="28" width="180" height="180" filterUnits="userSpaceOnUse" color-interpolation-filters="sRGB">
      <feGaussianBlur stdDeviation="14"/>
    </filter>
  </defs>
  <rect x="8" y="8" width="296" height="220" rx="56" fill="url(#g1)"/>
  <g filter="url(#glow)">
    <rect x="108" y="62" width="96" height="96" rx="28" fill="#7EC2FF" fill-opacity="0.45"/>
  </g>
  <rect x="106" y="60" width="100" height="100" rx="28" fill="#0C2EA8"/>
  <rect x="114" y="68" width="84" height="84" rx="24" fill="#EFF4FF"/>
  <path d="M158 88C144 88 132 99.6 132 114C132 128.4 144 140 158 140C168.2 140 176.8 133.7 180.9 124.8H167.8C165.6 127.4 162 129 158 129C149.7 129 143 122.2 143 114C143 105.8 149.7 99 158 99C162 99 165.6 100.6 167.8 103.2H180.9C176.8 94.3 168.2 88 158 88Z" fill="#00155A"/>
  <rect x="175" y="108" width="16" height="12" rx="2" fill="#00155A"/>
</svg>
